<svg width="56" height="56" viewBox="0 0 56 56" fill="none" xmlns="http://www.w3.org/2000/svg">
<g id="lotus 1" clip-path="url(#clip0_1940_493)">
<path id="Vector" d="M6.02886 39.6619C4.97941 38.6125 4.04742 37.4983 3.21956 36.3496C1.78183 37.2504 0.715971 38.0945 0.196768 38.5281C-0.0117011 38.7023 -0.0610292 39.0017 0.0805021 39.2336C1.15949 41.0012 5.85397 48.0546 12.6861 49.181C15.7065 49.679 18.7024 48.9453 21.243 47.8575C16.709 46.6966 10.7232 44.3565 6.02886 39.6619Z" fill="white"/>
<path id="Vector_2" d="M52.7806 36.3496C51.9526 37.4984 51.0206 38.6126 49.9711 39.662C45.2767 44.3566 39.291 46.6968 34.757 47.8575C37.2978 48.9453 40.2935 49.679 43.3139 49.181C50.146 48.0547 54.8405 41.0013 55.9195 39.2336C56.061 39.0017 56.0117 38.7024 55.8032 38.5281C55.2841 38.0945 54.2183 37.2503 52.7806 36.3496Z" fill="white"/>
<path id="Vector_3" d="M17.4523 19.4732C18.0475 17.0994 18.8991 14.9072 19.83 12.9664C17.192 10.5248 14.7146 8.9547 13.641 8.32262C13.3465 8.14915 12.9678 8.28466 12.85 8.60557C12.4121 9.79951 11.4632 12.6775 10.9809 16.3456C13.0867 17.1133 15.3078 18.1296 17.4523 19.4732Z" fill="white"/>
<path id="Vector_4" d="M45.0191 16.3456C44.5368 12.6775 43.5879 9.79951 43.15 8.60557C43.0323 8.28466 42.6535 8.14915 42.359 8.32262C41.2855 8.95459 38.8081 10.5248 36.17 12.9664C37.1009 14.9072 37.9524 17.0993 38.5477 19.4732C40.6922 18.1296 42.9133 17.1133 45.0191 16.3456Z" fill="white"/>
<path id="Vector_5" d="M16.5969 26.1805C16.5969 25.0887 16.6684 24.0177 16.7972 22.9716C10.4136 18.5138 2.84221 17.5206 0.606151 17.3182C0.260089 17.287 -0.0289893 17.576 0.00229192 17.9221C0.240401 20.5521 1.57117 30.5638 8.34892 37.3415C12.8562 41.8488 18.7928 43.9468 23.0384 44.9168C20.3689 41.0441 16.5969 34.1584 16.5969 26.1805Z" fill="white"/>
<path id="Vector_6" d="M55.3938 17.3182C53.1578 17.5206 45.5864 18.5138 39.2028 22.9717C39.3317 24.0177 39.4031 25.0887 39.4031 26.1805C39.4031 34.1585 35.631 41.0442 32.9615 44.9168C37.2071 43.9467 43.1437 41.8488 47.6511 37.3414C54.4288 30.5637 55.7597 20.552 55.9977 17.922C56.029 17.576 55.7399 17.287 55.3938 17.3182Z" fill="white"/>
<path id="Vector_7" d="M36.1219 26.1809C36.1219 35.6097 30.0838 43.4991 28.42 45.4941C28.201 45.7566 27.7989 45.7566 27.5799 45.4941C25.9161 43.4991 19.878 35.6097 19.878 26.1809C19.878 16.7521 25.9162 8.86277 27.58 6.86777C27.799 6.60527 28.2011 6.60527 28.4201 6.86777C30.0838 8.86277 36.1219 16.7522 36.1219 26.1809Z" fill="white"/>
</g>
<defs>
<clipPath id="clip0_1940_493">
<rect width="56" height="56" fill="white" transform="translate(0 0.00537109)"/>
</clipPath>
</defs>
</svg>
