<svg width="56" height="56" viewBox="0 0 56 56" fill="none" xmlns="http://www.w3.org/2000/svg">
<g id="business 1" clip-path="url(#clip0_1940_513)">
<path id="Vector" d="M38.0712 22.4228L37.625 22.0903C37.3572 21.9072 37.0379 21.8143 36.7137 21.8253C36.3895 21.8364 36.0772 21.9507 35.8225 22.1516L35.6212 22.3178C34.5373 23.1232 33.3362 23.7577 32.06 24.1991C31.9025 24.2516 30.9925 24.5053 30.765 24.5491C29.8571 24.7509 28.93 24.8536 28 24.8553C27.2398 24.8545 26.4812 24.7842 25.7337 24.6453C24.9383 24.4678 24.1526 24.2487 23.38 23.9891C22.8621 23.7889 22.3592 23.552 21.875 23.2803C21.3819 23.0071 20.9083 22.7001 20.4575 22.3616L20.1862 22.1428C19.9308 21.9399 19.6168 21.8244 19.2907 21.8134C18.9646 21.8023 18.6436 21.8964 18.375 22.0816L18.2962 22.1428C16.1641 23.6718 14.4288 25.6889 13.2353 28.0255C12.0419 30.3621 11.425 32.9504 11.4362 35.5741C11.4362 36.9566 11.9962 38.9428 14.6475 40.5878C14.805 40.6841 14.9625 40.7803 15.1287 40.8678C15.4521 41.0544 15.7851 41.2238 16.1262 41.3753C16.071 41.8429 16.0417 42.3132 16.0387 42.7841C16.0387 45.9564 17.2989 48.9988 19.5421 51.242C21.7853 53.4851 24.8277 54.7453 28 54.7453C31.1723 54.7453 34.2147 53.4851 36.4579 51.242C38.701 48.9988 39.9612 45.9564 39.9612 42.7841C39.9588 42.3103 39.9296 41.8371 39.8737 41.3666C40.2237 41.2091 40.5562 41.0428 40.8712 40.8678C41.0287 40.7803 41.1862 40.6928 41.335 40.5966C43.96 38.9428 44.5637 36.9566 44.5637 35.5741C44.5725 33.2848 44.103 31.0189 43.1854 28.9215C42.2678 26.8241 40.9223 24.9414 39.235 23.3941C38.8675 23.0528 38.5 22.7553 38.0712 22.4228ZM28 51.2366C26.4135 51.2391 24.8583 50.7955 23.5119 49.9565C22.1655 49.1174 21.0821 47.9168 20.3853 46.4915C19.6885 45.0663 19.4065 43.4738 19.5714 41.896C19.7362 40.3181 20.3414 38.8184 21.3178 37.568C22.2941 36.3175 23.6024 35.3668 25.0932 34.8243C26.584 34.2817 28.1973 34.1692 29.749 34.4996C31.3006 34.83 32.7281 35.59 33.8686 36.6928C35.009 37.7956 35.8165 39.1969 36.1987 40.7366C36.3753 41.4136 36.4636 42.1107 36.4612 42.8103C36.4497 45.0476 35.5534 47.1895 33.9681 48.7682C32.3828 50.3469 30.2373 51.2343 28 51.2366Z" fill="white"/>
<path id="Vector_2" d="M21 20.559L21.1838 20.7078C22.2879 21.6008 23.5576 22.2669 24.92 22.6678H25.0512C26.0107 22.9423 27.0021 23.0894 28 23.1053C29.0057 23.1031 30.0064 22.9648 30.975 22.694H31.08C32.4458 22.2951 33.7188 21.6289 34.825 20.734C34.8891 20.695 34.9479 20.648 35 20.594C35.5036 20.178 35.9665 19.7151 36.3825 19.2115C37.6631 17.6862 38.5029 15.8401 38.8113 13.8725C39.1197 11.9049 38.885 9.8905 38.1325 8.0465C37.8418 7.37186 37.481 6.72959 37.0562 6.13025C36.0555 4.64865 34.7064 3.43522 33.1275 2.59637C31.5486 1.75751 29.7879 1.31885 28 1.31885C26.2121 1.31885 24.4514 1.75751 22.8725 2.59637C21.2936 3.43522 19.9445 4.64865 18.9438 6.13025C18.5286 6.73269 18.1795 7.37808 17.9025 8.05525C17.1461 9.89576 16.9052 11.9075 17.2058 13.8746C17.5064 15.8416 18.3371 17.6897 19.6088 19.2203C20.0296 19.709 20.4954 20.1572 21 20.559Z" fill="white"/>
<path id="Vector_3" d="M50.75 22.9654C50.4769 22.743 50.1354 22.6216 49.7831 22.6216C49.4309 22.6216 49.0894 22.743 48.8163 22.9654C47.7345 23.8589 46.4893 24.5335 45.15 24.9517L44.9313 25.0217C44.7425 25.079 44.569 25.1779 44.4234 25.3111C44.2779 25.4443 44.164 25.6084 44.0901 25.7913C44.0163 25.9743 43.9843 26.1714 43.9967 26.3683C44.009 26.5652 44.0652 26.7569 44.1613 26.9292C45.5699 29.586 46.3003 32.5496 46.2875 35.5567C46.2868 36.3728 46.1386 37.1821 45.85 37.9454C45.7307 38.2354 45.6915 38.5521 45.7365 38.8624C45.7815 39.1727 45.9091 39.4652 46.1058 39.7093C46.3025 39.9535 46.5612 40.1403 46.8549 40.2502C47.1485 40.3601 47.4663 40.3891 47.775 40.3342C50.4 39.8179 52.8675 38.9079 54.3813 37.4554C54.8726 37.0125 55.2676 36.4732 55.5416 35.8711C55.8155 35.269 55.9626 34.6169 55.9738 33.9554C55.9742 31.8506 55.5056 29.7721 54.602 27.871C53.6984 25.97 52.3825 24.2942 50.75 22.9654Z" fill="white"/>
<path id="Vector_4" d="M40.4162 22.1076C40.7837 22.4489 41.1337 22.7901 41.475 23.1576C41.6617 23.3517 41.8908 23.5 42.1442 23.5911C42.3977 23.6821 42.6687 23.7135 42.9362 23.6826C43.4524 23.6202 43.9619 23.5118 44.4587 23.3589C45.8273 22.9529 47.0825 22.2339 48.125 21.2589C49.4957 20.0097 50.4685 18.3848 50.9223 16.5867C51.3761 14.7885 51.2908 12.8966 50.677 11.1466C50.0632 9.39658 48.948 7.86586 47.4704 6.74513C45.9929 5.6244 44.2182 4.9632 42.3675 4.8439C41.9742 4.81766 41.5796 4.81766 41.1862 4.8439C40.9022 4.86069 40.6265 4.9465 40.3831 5.09388C40.1397 5.24127 39.9359 5.44578 39.7894 5.6897C39.6429 5.93362 39.558 6.20959 39.5422 6.4937C39.5264 6.77781 39.5802 7.06149 39.6987 7.32015C40.3301 8.8521 40.6541 10.4932 40.6525 12.1501C40.6108 14.7599 39.8046 17.3002 38.3337 19.4564C38.2361 19.6343 38.1994 19.8393 38.2294 20.0401C38.2595 20.2408 38.3545 20.4261 38.5 20.5676C39.1719 21.0383 39.812 21.5528 40.4162 22.1076Z" fill="white"/>
<path id="Vector_5" d="M16.2925 7.32058C16.4111 7.06192 16.4648 6.77825 16.449 6.49414C16.4332 6.21003 16.3484 5.93406 16.2019 5.69014C16.0553 5.44621 15.8515 5.2417 15.6081 5.09432C15.3647 4.94694 15.0891 4.86113 14.805 4.84433C12.8546 4.72825 10.9161 5.2196 9.25642 6.25075C7.59676 7.2819 6.29754 8.80215 5.5376 10.6022C4.77766 12.4023 4.59437 14.3936 5.01296 16.3022C5.43156 18.2107 6.43145 19.9426 7.875 21.2593C8.9275 22.2327 10.1915 22.9485 11.5675 23.3506C12.0696 23.5081 12.5851 23.6194 13.1075 23.6831C13.3792 23.7145 13.6546 23.6818 13.9114 23.5876C14.1682 23.4934 14.3993 23.3403 14.5863 23.1406C14.9188 22.7906 15.2513 22.4406 15.61 22.1168C16.2267 21.5025 16.9106 20.9595 17.6488 20.4981C17.7846 20.4025 17.8785 20.2584 17.911 20.0955C17.9436 19.9327 17.9124 19.7635 17.8238 19.6231L17.4475 19.0981C16.0926 17.0377 15.3716 14.6253 15.3738 12.1593C15.3739 10.4969 15.6978 8.85041 16.3275 7.31184L16.2925 7.32058Z" fill="white"/>
<path id="Vector_6" d="M9.68625 35.574C9.68963 32.5779 10.4256 29.6281 11.83 26.9815C11.9256 26.8048 11.9808 26.6091 11.9915 26.4085C12.0023 26.2079 11.9683 26.0075 11.8921 25.8216C11.8159 25.6357 11.6994 25.4691 11.551 25.3337C11.4025 25.1984 11.2259 25.0977 11.0338 25.039C9.65318 24.6308 8.366 23.956 7.245 23.0527C6.9484 22.8111 6.57755 22.6792 6.195 22.6792C5.81245 22.6792 5.4416 22.8111 5.145 23.0527C3.5372 24.3807 2.24239 26.0472 1.35302 27.9333C0.463648 29.8195 0.00164767 31.8787 0 33.964C0.011123 34.6254 0.158246 35.2775 0.432216 35.8796C0.706185 36.4818 1.10114 37.0211 1.5925 37.464C3.10625 38.9165 5.53875 39.8265 8.19875 40.3427C8.50744 40.3977 8.82523 40.3687 9.11887 40.2587C9.41252 40.1488 9.67124 39.962 9.86798 39.7179C10.0647 39.4738 10.1923 39.1812 10.2372 38.8709C10.2822 38.5606 10.243 38.244 10.1238 37.954C9.8375 37.193 9.68934 36.387 9.68625 35.574Z" fill="white"/>
<path id="Vector_7" d="M32.1213 39.5727L26.4338 44.3589L24.0713 41.9439C23.7464 41.6121 23.303 41.4229 22.8386 41.418C22.3742 41.4131 21.9269 41.5928 21.595 41.9177C21.2632 42.2426 21.074 42.686 21.069 43.1504C21.0641 43.6148 21.2439 44.0621 21.5688 44.3939L25.0688 47.9727C25.2319 48.1391 25.4266 48.2713 25.6414 48.3614C25.8563 48.4516 26.087 48.4979 26.32 48.4977C26.7276 48.5104 27.1268 48.3805 27.4488 48.1302L34.3788 42.2939C34.5546 42.1457 34.6995 41.9643 34.8052 41.7601C34.9109 41.5559 34.9753 41.3328 34.9948 41.1037C35.0143 40.8746 34.9885 40.6438 34.9188 40.4247C34.8491 40.2055 34.737 40.0023 34.5888 39.8264C34.4405 39.6506 34.2591 39.5057 34.0549 39.4C33.8507 39.2943 33.6276 39.2299 33.3985 39.2104C33.1694 39.1909 32.9386 39.2167 32.7195 39.2864C32.5003 39.3561 32.2971 39.4682 32.1213 39.6164V39.5727Z" fill="white"/>
</g>
<defs>
<clipPath id="clip0_1940_513">
<rect width="56" height="56" fill="white" transform="translate(0 0.00537109)"/>
</clipPath>
</defs>
</svg>
