<svg width="56" height="56" viewBox="0 0 56 56" fill="none" xmlns="http://www.w3.org/2000/svg">
<g id="skills 1" clip-path="url(#clip0_1940_560)">
<path id="Vector" d="M28.9625 21.618C29.225 21.268 29.575 21.1805 29.925 21.3555C30.0125 21.3555 33.8625 22.7555 36.8375 23.368C36.6625 22.143 36.225 21.0055 35.525 20.043C33.1625 16.6305 28.4375 16.543 27.825 16.543C27.3 16.543 22.6625 16.6305 20.2125 20.043C19.3375 21.1805 18.9 22.668 18.8125 24.3305C22.225 24.3305 27.3 23.9805 28.9625 21.618Z" fill="white"/>
<path id="Vector_2" d="M19.775 25.9929C19.5125 25.9929 19.25 25.9929 19.075 25.9929C19.1625 26.5179 19.1625 27.0429 19.3375 27.5679C19.6 28.7054 19.95 30.0179 20.475 31.3304C21.525 34.7429 25.2 38.5054 28 38.5054C30.8875 38.5054 34.5625 34.7429 35.525 31.3304C36.05 30.0179 36.4 28.7054 36.6625 27.5679C36.8375 26.6929 36.925 25.9054 36.925 25.1179C34.3875 24.5929 31.2375 23.6304 29.925 23.1929C27.65 25.5554 22.8375 25.9929 19.775 25.9929Z" fill="white"/>
<path id="Vector_3" d="M28.875 10.3306V14.7931C28.4375 14.7931 28.175 14.7931 28 14.7931C27.825 14.7931 27.5625 14.7931 27.125 14.7931V10.3306C27.3875 10.4181 27.7375 10.4181 28 10.4181C28.2625 10.4181 28.6125 10.4181 28.875 10.3306Z" fill="white"/>
<path id="Vector_4" d="M40.075 16.5429L37.275 19.3429C37.1875 19.2554 37.1 19.0804 37.0125 18.9929C36.75 18.6429 36.4875 18.2929 36.1375 17.9429L38.7625 15.3179C39.1125 15.8429 39.55 16.2804 40.075 16.5429Z" fill="white"/>
<path id="Vector_5" d="M44.3625 27.3931C44.3625 27.6556 44.3625 28.0056 44.45 28.2681H38.325C38.325 28.1806 38.4125 28.0056 38.4125 27.9181C38.5 27.4806 38.5875 26.9556 38.675 26.5181H44.45C44.45 26.7806 44.3625 27.1306 44.3625 27.3931Z" fill="white"/>
<path id="Vector_6" d="M19.775 17.9428C19.5125 18.2053 19.1625 18.5553 18.9 18.9053C18.8125 18.9928 18.725 19.1678 18.6375 19.2553L15.925 16.6303C16.1875 16.4553 16.3625 16.2803 16.5375 16.1053C16.8 15.8428 16.975 15.6678 17.15 15.4053L19.775 17.9428Z" fill="white"/>
<path id="Vector_7" d="M11.55 28.2681C11.6375 28.0056 11.6375 27.6556 11.6375 27.3931C11.6375 27.1306 11.6375 26.7806 11.55 26.5181H17.325C17.4125 27.0431 17.4125 27.4806 17.5875 27.9181C17.5875 28.0056 17.675 28.1806 17.675 28.2681H11.55Z" fill="white"/>
<path id="Vector_8" d="M32.375 4.38037C32.375 6.74287 30.45 8.75537 28 8.75537C25.55 8.75537 23.625 6.83037 23.625 4.38037C23.625 2.01787 25.55 0.00537109 28 0.00537109C30.45 0.00537109 32.375 1.93037 32.375 4.38037Z" fill="white"/>
<path id="Vector_9" d="M9.88751 27.3931C9.88751 29.7556 7.96251 31.7681 5.51251 31.7681C3.15001 31.7681 1.13751 29.8431 1.13751 27.3931C1.13751 25.0306 3.06251 23.0181 5.51251 23.0181C7.87501 23.0181 9.88751 25.0306 9.88751 27.3931Z" fill="white"/>
<path id="Vector_10" d="M43.575 16.0181C41.2125 16.0181 39.2 14.0931 39.2 11.6431C39.2 9.28057 41.125 7.26807 43.575 7.26807C45.9375 7.26807 47.95 9.19307 47.95 11.6431C47.95 14.0056 46.025 16.0181 43.575 16.0181Z" fill="white"/>
<path id="Vector_11" d="M54.8625 27.3931C54.8625 29.7556 52.9375 31.7681 50.4875 31.7681C48.125 31.7681 46.1125 29.8431 46.1125 27.3931C46.1125 25.0306 48.0375 23.0181 50.4875 23.0181C52.85 23.0181 54.8625 25.0306 54.8625 27.3931Z" fill="white"/>
<path id="Vector_12" d="M16.7125 11.6431C16.7125 12.8681 16.1875 14.0056 15.3125 14.7931C14.525 15.5806 13.475 16.0181 12.3375 16.0181C9.97499 16.0181 7.96249 14.0931 7.96249 11.6431C7.96249 9.28057 9.88749 7.26807 12.3375 7.26807C14.7875 7.26807 16.7125 9.28057 16.7125 11.6431Z" fill="white"/>
<path id="Vector_13" d="M20.7375 43.143L22.05 44.2805C22.3125 44.543 22.4 44.893 22.3125 45.243L21.35 48.043L25.9875 53.5555L21.9625 39.293C21.35 40.518 20.7375 42.0055 20.7375 43.143Z" fill="white"/>
<path id="Vector_14" d="M19.6 47.9553L20.5625 45.2428L19.425 44.2803C19.25 44.1053 19.1625 43.9303 19.1625 43.7553C18.9 42.2678 19.6 40.5178 20.3 39.0303C13.2125 41.2178 9.625 44.3678 9.625 48.4803V55.1303C9.625 55.5678 9.975 56.0053 10.5 56.0053H25.9L19.8625 48.7428C19.5125 48.5678 19.5125 48.2178 19.6 47.9553Z" fill="white"/>
<path id="Vector_15" d="M33.6875 45.1556L34.65 47.9556L30.0125 53.4681L34.0375 39.2056C34.65 40.4306 35.2625 41.9181 35.2625 42.9681L33.95 44.1056C33.6 44.4556 33.5125 44.8931 33.6875 45.1556Z" fill="white"/>
<path id="Vector_16" d="M32.4625 38.5054L28 54.0804L23.5375 38.5054C24.9375 39.5554 26.3375 40.2554 28 40.2554C29.6625 40.2554 31.0625 39.5554 32.4625 38.5054Z" fill="white"/>
<path id="Vector_17" d="M46.4625 48.4804V55.1304C46.4625 55.5679 46.025 56.0054 45.5875 56.0054H30.1875L36.225 48.7429C36.4 48.4804 36.4875 48.2179 36.4 47.8679L35.4375 45.1554L36.575 44.1929C36.75 44.0179 36.8375 43.8429 36.8375 43.6679C37.1 42.1804 36.4 40.4304 35.7 38.9429C42.875 41.2179 46.4625 44.3679 46.4625 48.4804Z" fill="white"/>
</g>
<defs>
<clipPath id="clip0_1940_560">
<rect width="56" height="56" fill="white" transform="translate(0 0.00537109)"/>
</clipPath>
</defs>
</svg>
