<svg width="461" height="392" viewBox="0 0 461 392" fill="none" xmlns="http://www.w3.org/2000/svg">
<g opacity="0.5" clip-path="url(#clip0_2079_384)">
<path d="M102.722 98.4594L103.208 96.4044C104.663 90.2403 107.487 81.2202 112.754 72.7942C113.332 71.8691 113.363 70.703 112.835 69.7494C112.306 68.7954 111.301 68.2031 110.21 68.2031H95.0771C94.2158 68.2031 93.3972 68.5727 92.828 69.218L92.8277 69.2184C85.5716 77.4412 81.7877 89.9764 79.8512 100.902C77.9277 111.755 77.8861 120.66 77.8861 121.336L102.722 98.4594ZM102.722 98.4594L104.801 98.8326M102.722 98.4594L104.801 98.8326M104.801 98.8326C115.482 100.751 123.613 110.117 123.613 121.337C123.613 133.945 113.354 144.204 100.75 144.204M104.801 98.8326L100.75 144.204M42.7541 72.794C37.4869 81.22 34.6633 90.2402 33.2076 96.4044L32.7223 98.4594L34.8005 98.8326C45.482 100.751 53.6131 110.117 53.6131 121.337C53.6131 133.945 43.3542 144.204 30.7501 144.204C18.1459 144.204 7.88705 133.945 7.88705 121.336C7.88705 120.661 7.9286 111.755 9.85223 100.902C11.7887 89.9764 15.5726 77.4412 22.8287 69.2184L22.829 69.218C23.3982 68.5727 24.2168 68.2031 25.0781 68.2031H40.2101C41.3008 68.2031 42.306 68.7954 42.8347 69.7494C43.363 70.7029 43.3321 71.8689 42.7541 72.794ZM42.7541 72.794L44.4501 73.8541M42.7541 72.794C42.7541 72.794 42.754 72.7941 42.754 72.7942L44.4501 73.8541M44.4501 73.8541C39.8654 81.1883 37.1731 89.0193 35.6369 94.9192L21.3291 67.8951C22.278 66.8191 23.6431 66.2031 25.0781 66.2031H40.2101C42.0281 66.2031 43.7031 67.1901 44.5841 68.7801C45.4651 70.3701 45.4131 72.3131 44.4501 73.8541ZM26.452 74.2041H27.4491H31.8011H34.9622L33.6084 77.0606C28.8187 87.1667 26.8448 96.8288 26.1563 101.075L26.1562 101.075C26.0085 101.986 26.2873 102.912 26.9108 103.588L26.9114 103.588C27.5341 104.264 28.4348 104.617 29.3574 104.546C29.3583 104.546 29.3592 104.546 29.3601 104.546L29.3713 104.545C29.7649 104.513 30.25 104.474 30.7501 104.474C40.0505 104.474 47.6129 112.036 47.6131 121.337L26.452 74.2041ZM26.452 74.2041L25.8519 75.0003M26.452 74.2041L25.8519 75.0003M25.8519 75.0003C19.8482 82.9658 16.9007 94.5766 15.4232 103.991C13.9342 113.479 13.8871 121.098 13.8871 121.339V121.339M25.8519 75.0003L13.8871 121.339M13.8871 121.339C13.8882 130.64 21.4501 138.204 30.7501 138.204C40.0508 138.204 47.6141 130.639 47.6131 121.337L13.8871 121.339ZM100.75 144.204C88.146 144.204 77.887 133.945 77.8861 121.336L100.75 144.204ZM3.29805 191.927C0.936052 193.356 0.180053 196.431 1.61005 198.793L3.29805 191.927ZM3.29805 191.927C5.66005 190.496 8.73505 191.253 10.1641 193.615L3.29805 191.927ZM433.294 316L433.779 313.944L431.7 313.572C421.018 311.655 412.887 302.288 412.887 291.067C412.887 278.462 423.145 268.204 435.75 268.204C448.356 268.204 458.614 278.462 458.613 291.068C458.613 291.742 458.572 300.648 456.648 311.502C454.711 322.428 450.927 334.964 443.671 343.189L443.671 343.189C443.102 343.835 442.283 344.204 441.422 344.204H426.289C425.199 344.204 424.194 343.612 423.665 342.659L423.665 342.658C423.136 341.705 423.167 340.54 423.746 339.615L423.746 339.614C429.013 331.187 431.838 322.165 433.294 316ZM439.051 338.204H440.048L440.648 337.408C446.652 329.441 449.6 317.829 451.077 308.414C452.566 298.925 452.613 291.306 452.613 291.065C452.612 281.765 445.049 274.204 435.75 274.204C426.45 274.204 418.887 281.769 418.887 291.068C418.887 300.368 426.451 307.931 435.75 307.931C436.253 307.931 436.74 307.894 437.142 307.862L437.149 307.861C438.051 307.787 438.962 308.14 439.589 308.82C440.212 309.496 440.491 310.423 440.344 311.333C439.654 315.579 437.681 325.242 432.892 335.348L431.538 338.204H434.699H439.051ZM97.4491 74.2041H96.452L95.8519 75.0003C89.8482 82.9658 86.9007 94.5766 85.4232 103.991C83.9342 113.479 83.8871 121.098 83.8871 121.339V121.339C83.8882 130.64 91.4501 138.204 100.75 138.204C110.051 138.204 117.613 130.639 117.613 121.337C117.613 112.037 110.051 104.474 100.75 104.474C100.25 104.474 99.7649 104.513 99.3713 104.545L99.3602 104.546C99.3593 104.546 99.3584 104.546 99.3575 104.546C98.4339 104.617 97.5341 104.264 96.9114 103.588L96.9108 103.588C96.2873 102.912 96.0085 101.986 96.1562 101.075L96.1563 101.075C96.8448 96.8288 98.8187 87.1667 103.608 77.0606L104.962 74.2041H101.801H97.4491ZM338.453 4.65031L338.453 4.65071L453.453 194.651L453.453 194.651C454.311 196.068 453.857 197.913 452.441 198.77C451.95 199.067 451.418 199.205 450.892 199.205C449.87 199.205 448.883 198.687 448.322 197.758L448.321 197.757L334.78 10.1685L334.196 9.2041H333.069H95.8871C94.2306 9.2041 92.8871 7.86053 92.8871 6.2041C92.8871 4.54767 94.2306 3.2041 95.8871 3.2041H335.887C336.936 3.2041 337.91 3.75333 338.453 4.65031ZM118.322 387.758L118.321 387.757L3.32105 197.757L3.32093 197.757C2.46294 196.34 2.91689 194.495 4.33332 193.638L4.33438 193.638C5.75074 192.78 7.59556 193.233 8.45285 194.65L8.45305 194.651L121.994 382.24L122.578 383.204H123.705H360.887C362.544 383.204 363.887 384.547 363.887 386.204C363.887 387.862 362.544 389.204 360.887 389.204H120.887C119.836 389.204 118.864 388.656 118.322 387.758ZM363.294 316L363.779 313.944L361.7 313.572C351.018 311.655 342.887 302.288 342.887 291.067C342.887 278.462 353.145 268.204 365.75 268.204C378.356 268.204 388.614 278.462 388.613 291.068C388.613 291.742 388.572 300.648 386.648 311.502C384.711 322.428 380.927 334.964 373.671 343.189L373.671 343.189C373.102 343.835 372.283 344.204 371.422 344.204H356.289C355.199 344.204 354.194 343.612 353.665 342.659L353.665 342.658C353.136 341.705 353.167 340.54 353.746 339.615L353.746 339.614C359.013 331.187 361.838 322.165 363.294 316ZM369.051 338.204H370.048L370.648 337.408C376.652 329.441 379.6 317.829 381.077 308.414C382.566 298.925 382.613 291.306 382.613 291.065C382.612 281.765 375.049 274.204 365.75 274.204C356.45 274.204 348.887 281.769 348.887 291.068C348.887 300.368 356.451 307.931 365.75 307.931C366.253 307.931 366.74 307.894 367.142 307.862L367.149 307.861C368.051 307.787 368.962 308.14 369.589 308.82C370.212 309.496 370.491 310.423 370.344 311.333C369.654 315.579 367.681 325.242 362.892 335.348L361.538 338.204H364.699H369.051ZM441.422 346.204C442.857 346.204 444.222 345.588 445.171 344.512L460.613 291.068C460.614 277.357 449.46 266.204 435.75 266.204C422.04 266.204 410.887 277.357 410.887 291.067C410.887 302.581 418.753 312.292 429.394 315.107C429.396 315.098 429.398 315.089 429.401 315.081L431.347 315.54L430.994 317.509C430.951 317.501 430.907 317.493 430.864 317.485C429.328 323.386 426.635 331.219 422.05 338.554C421.086 340.095 421.034 342.038 421.916 343.628C422.797 345.218 424.472 346.204 426.289 346.204H441.422Z" fill="#D5BDA2" stroke="#01010F" stroke-width="4"/>
</g>
<defs>
<clipPath id="clip0_2079_384">
<rect width="461" height="391" fill="white" transform="translate(0 0.283203)"/>
</clipPath>
</defs>
</svg>
